<?xml version="1.0" encoding="utf-8"?>
<!-- Generator: Adobe Illustrator 24.0.1, SVG Export Plug-In . SVG Version: 6.00 Build 0)  -->
<svg version="1.1" id="Camada_1" xmlns="http://www.w3.org/2000/svg" xmlns:xlink="http://www.w3.org/1999/xlink" x="0px" y="0px"
	 viewBox="0 0 478.5 182.6" style="enable-background:new 0 0 478.5 182.6;" xml:space="preserve">
<style type="text/css">
	.st0{fill:#FFFFFF;}
</style>
<g>
	<path class="st0" d="M60,60.1c13.2,2.2,23.9,8.5,23.9,21.8c0,9.3-5.2,16.7-13.3,21.1c-7.1,4-14.1,5.4-23.8,5.4H13v-3.8
		c11.7-1.1,12.4-2.3,12.4-13.2V36.4C25.4,25,24.1,24,13,23.1v-3.8h36c10.3,0,16.7,1.8,21.1,4.8c4.8,3.3,8.1,8.4,8.1,15.4
		C78.2,52.3,67.6,58.2,60,60.1z M44.2,58.5c15.1,0,21.3-6,21.3-17.3c0-9.6-5.9-17-19.1-17c-3.8,0-6.3,0.4-7.7,1.4
		c-1.1,0.8-1.5,2.3-1.5,6.7v26.2H44.2z M37.2,91.2c0,9.9,2.3,12.4,12.1,12.4c10.7,0,21.1-5.8,21.1-20.2c0-14-9.9-20-26.6-20h-6.6
		V91.2z"/>
	<path class="st0" d="M164,85.7c-0.8,4.3-4.9,18.5-6.3,22.8H93.9v-3.8c12.5-1.2,13.6-1.9,13.6-13.6V36.5c0-11.7-1.4-12.4-12.4-13.5
		v-3.8h36.8v3.8c-11,1.1-12.5,1.6-12.5,13.5v55.9c0,8.4,1.1,10.3,8.9,10.4c0.1,0,10,0.1,10.8,0.1c7,0,9.1-0.8,12.2-4.3
		c3.4-3.6,6.3-9.1,8.4-14.1L164,85.7z"/>
	<path class="st0" d="M227.9,108.5v-3.8c8.9-1.1,10-2.5,8.1-7.7c-1.8-5.4-4.5-12.2-7.4-20.9h-29.7c-2.2,6.2-4.3,11.5-6.2,17.2
		c-3,8.9-1.1,10,10.2,11.4v3.8h-31.7v-3.8c8.6-1.1,10.8-2.1,15.7-14.4l28.4-72.1l4.4-0.8c8.6,23.5,18.1,49.4,26.8,73.2
		c4.4,11.9,5.6,13,15.4,14.1v3.8H227.9z M214.1,35.3c-4.4,11.8-9.1,24.3-13.2,35.1h25.7L214.1,35.3z"/>
	<path class="st0" d="M348.8,86.5c-1.9,6.6-5.5,16.5-7.6,20.7c-4,0.8-14.7,3.3-25.1,3.3c-32.8,0-49.6-21.8-49.6-45.9
		c0-28,21.3-47.4,52-47.4c11.8,0,21.4,2.5,25.9,3.2c0.5,6.2,1.5,14.4,2.6,21.3l-4.3,1c-2.7-9.2-6-14.8-13-17.7
		c-3.6-1.6-9.2-2.6-14.4-2.6c-22.7,0-34.6,16.7-34.6,39.4c0,26.5,13.7,43.5,36,43.5c14,0,20.9-6.5,27.9-20.2L348.8,86.5z"/>
	<path class="st0" d="M362,19.2h36.7v3.8C387.9,24,386,25,386,37.2v23.6c2.7-0.3,5.9-2.5,9.9-6.3c7.7-7.3,16.9-16.6,23.2-23.8
		c4.1-4.7,3.7-6.5-2.2-7.3l-3.8-0.4v-3.8h33.4v3.8c-10.3,1.2-13.9,1.9-23.1,11.4c-4.1,4-14.8,14.4-23.6,23.1
		c10.4,12.4,25.7,29.9,32.8,37.5c7,7.6,8.8,8.6,17.3,9.6v3.8h-22c-10.6-11.9-21.7-25.3-34.2-39.8c-3.2-3.8-5.5-4.1-7.7-4v26.1
		c0,11.9,1.2,12.9,12.6,13.9v3.8H362v-3.8c11.3-1,12.4-1.9,12.4-13.9V37.2c0-12.4-1-13.3-12.4-14.1V19.2z"/>
</g>
<g>
	<path class="st0" d="M189.3,159.1v-1.6c3.2-0.3,3.7-0.6,3.7-4.3v-9.1c0-4.6-1.8-7-5.5-6.9c-2.1,0-4.3,1.1-5.9,2.9v13.1
		c0,3.6,0.4,4,3.8,4.3v1.6h-12.1v-1.6c3.2-0.3,3.9-0.6,3.9-4.3v-26.8c0-2.9-0.2-3.7-3.9-4V121c2.9-0.3,6.3-1.1,8.3-1.9
		c0,2.2,0,4.6,0,6.9V138c2-2,5.1-4.1,8.1-4.1c4.6,0,7.7,2.8,7.7,9.5v9.8c0,3.7,0.4,4,3.7,4.2v1.6H189.3z"/>
	<path class="st0" d="M216.7,134c7,0,12.1,5.3,12.1,12.5c0,9-6.7,13.3-12.1,13.3c-7.7,0-12.4-6.2-12.4-12.4
		C204.3,138.3,211.4,134,216.7,134z M216,135.9c-3.4,0-6.5,3.3-6.5,9.7c0,7.1,3.1,12.2,7.7,12.2c3.4,0,6.3-2.5,6.3-10.1
		C223.6,141.2,220.9,135.9,216,135.9z"/>
	<path class="st0" d="M263,159.1v-1.6c3.3-0.3,3.7-0.6,3.7-4.5v-9.3c0-4-1.3-6.5-4.8-6.5c-2.1,0-4.1,1.2-6.2,2.9
		c0.1,0.7,0.2,1.3,0.2,2.4v10.8c0,3.5,0.5,3.8,3.6,4.1v1.6h-11.9v-1.6c3.4-0.3,4-0.6,4-4.2v-9.6c0-4.1-1.3-6.4-4.7-6.4
		c-2.2,0-4.4,1.5-6.1,2.9v13.1c0,3.7,0.4,3.9,3.6,4.2v1.6h-12v-1.6c3.7-0.3,4-0.6,4-4.2v-11.5c0-3.6-0.2-3.8-3.3-4.3V136
		c2.6-0.4,5.2-1.1,7.7-2.2c0,1.3,0,3.2,0,4.5c1.2-0.9,2.3-1.8,4.1-2.9c1.4-0.9,2.6-1.4,4.4-1.4c2.7,0,5,1.7,6.1,4.6
		c1.6-1.2,3-2.2,4.4-3.1c1.2-0.8,2.8-1.4,4.4-1.4c4.3,0,7,3.1,7,8.6v10.7c0,3.7,0.3,3.9,3.5,4.2v1.6H263z"/>
	<path class="st0" d="M298.1,154.3c-3.6,4.5-7.5,5.4-9.2,5.4c-6.8,0-10.9-5.6-10.9-12c0-3.8,1.3-7.3,3.6-9.7
		c2.3-2.6,5.4-4.1,8.3-4.1c4.8,0,8.5,4.2,8.5,8.6c-0.1,1.1-0.2,1.6-1.1,1.8c-1.1,0.2-8.2,0.7-14.9,0.9c-0.2,7.5,4.4,10.5,8.3,10.5
		c2.3,0,4.4-0.9,6.5-2.8L298.1,154.3z M288.5,136.1c-2.6,0-5.1,2.4-5.8,6.9c3.1,0,6.2,0,9.5-0.2c1,0,1.3-0.3,1.3-1.1
		C293.6,138.8,291.6,136.1,288.5,136.1z"/>
	<path class="st0" d="M341.7,157.7c-1.2,0.2-5.3,0.9-8.6,2.1c0-1.2,0-2.4,0-3.6c-1,0.6-2.4,1.4-3.4,2c-2.2,1.3-3.7,1.6-4.4,1.6
		c-4.5,0-10.3-4.5-10.3-12.2c0-7.7,6.8-13.5,14.4-13.5c0.8,0,2.6,0.1,3.8,0.6v-8.2c0-3.6-0.4-3.7-4.3-4V121c2.8-0.4,6.7-1.2,8.7-1.9
		c0,2.1,0,4.5,0,6.8v26.8c0,2.9,0.4,3.3,2.4,3.4l1.8,0.1V157.7z M333.1,139c-1.3-1.9-3.7-2.8-5.8-2.8c-2.7,0-7.4,1.8-7.4,9.8
		c0,6.7,4.2,10.3,7.7,10.3c2,0,4.2-1,5.5-2V139z"/>
	<path class="st0" d="M364.6,154.3c-3.6,4.5-7.5,5.4-9.2,5.4c-6.8,0-10.9-5.6-10.9-12c0-3.8,1.3-7.3,3.6-9.7
		c2.3-2.6,5.4-4.1,8.3-4.1c4.8,0,8.5,4.2,8.5,8.6c-0.1,1.1-0.2,1.6-1.1,1.8c-1.1,0.2-8.2,0.7-14.9,0.9c-0.2,7.5,4.4,10.5,8.3,10.5
		c2.3,0,4.4-0.9,6.5-2.8L364.6,154.3z M355,136.1c-2.6,0-5.1,2.4-5.8,6.9c3.1,0,6.2,0,9.5-0.2c1,0,1.3-0.3,1.3-1.1
		C360.1,138.8,358.1,136.1,355,136.1z"/>
	<path class="st0" d="M382.7,141.3c-1-3.2-2.4-5.5-5.8-5.5c-1.9,0-3.4,1.4-3.4,3.6c0,2.4,1.6,3.5,4.7,5c4.8,2.3,7.2,4,7.2,7.6
		c0,5.1-4.7,7.7-9.1,7.7c-2.9,0-5.5-0.9-6.6-1.6c-0.3-1.6-0.8-4.7-1-6.5l1.6-0.3c1,3.6,2.9,6.5,6.8,6.5c2.1,0,3.9-1.4,3.9-3.8
		c0-2.5-1.5-3.8-4.5-5.2c-3.9-1.9-7.1-3.7-7.1-7.7c0-4.1,3.4-7.2,8.7-7.2c2.3,0,4.2,0.6,5.3,0.7c0.2,1.3,0.6,4.8,0.8,6.2
		L382.7,141.3z"/>
	<path class="st0" d="M388.9,159.1v-1.6c3.5-0.3,3.9-0.6,3.9-4.4v-11.5c0-3.4-0.2-3.7-3.5-4.2v-1.3c2.9-0.5,5.5-1.2,7.9-2.2
		c0,2.3,0,4.7,0,7v12.2c0,3.8,0.4,4.1,4,4.4v1.6H388.9z M394.7,128.4c-1.6,0-2.9-1.4-2.9-2.9c0-1.8,1.4-3.1,3-3.1
		c1.6,0,2.8,1.3,2.8,3.1C397.6,127,396.3,128.4,394.7,128.4z"/>
	<path class="st0" d="M411.3,151c-1.3,1.1-1.8,2.1-1.8,2.8c0,1,0.9,2.1,3.4,2.1c2.1,0,4.4-0.1,6.2-0.1c3.6,0,8.1,1.2,8.1,6.7
		c0,5.8-6.8,11.2-14.2,11.2c-6.3,0-9.7-3.7-9.8-7c0-1.2,0.5-2.3,1.4-3.2c1.1-1.2,3.3-3,4.6-4c-2-0.6-3.4-1.8-4.2-3
		c-0.5-0.8-0.7-1.8-0.7-2.4c2.1-0.8,4-2.3,5.1-3.8L411.3,151z M414,151.5c-5.2,0-9.5-3.2-9.5-8.4c0-6.3,5.7-9.3,10-9.3
		c1.8,0,3.7,0.5,5.3,1.4c2.6,0,5.9-0.4,7.5-0.8l0.3,0.5c-0.3,0.9-1.2,2.4-2.1,2.9c-0.8,0-2.7-0.2-3.5-0.3c0.9,1.3,1.6,3.1,1.6,5.1
		C423.7,148.7,418.7,151.5,414,151.5z M415.2,159.7c-2.7,0-3.9,0.3-5,1.2c-1.6,1.3-2.7,2.9-2.7,4.6c0,3.1,3.2,5.3,7.5,5.3
		c5.3,0,8.3-2.7,8.3-6.3c0-1.9-0.9-3.4-2.4-4.1C419.5,159.9,417.6,159.7,415.2,159.7z M414,135.6c-2.5,0-4.7,2.3-4.7,6.7
		c0,4.4,2.2,7.5,5.3,7.5c2.4-0.1,4.6-2.2,4.6-6.7C419.1,138.7,417.1,135.6,414,135.6z"/>
	<path class="st0" d="M445.5,159.1v-1.6c3.2-0.3,3.6-0.7,3.6-4.5v-9.2c0-3.9-1.4-6.5-5.1-6.5c-2.3,0-4.5,1.3-6.2,2.9v13
		c0,3.8,0.3,4,3.6,4.3v1.6h-12v-1.6c3.7-0.4,4-0.6,4-4.3v-11.5c0-3.6-0.4-3.8-3.4-4.3V136c2.7-0.4,5.5-1.2,7.8-2.2
		c0,1.3,0,3.1,0,4.4c1.1-0.8,2.3-1.6,3.8-2.6c1.6-1,3-1.7,4.6-1.7c4.5,0,7.2,3.3,7.2,8.7v10.6c0,3.8,0.3,4,3.6,4.3v1.6H445.5z"/>
</g>
</svg>
